<svg width="1110" height="117" viewBox="0 0 1110 117" fill="none" xmlns="http://www.w3.org/2000/svg">
<rect x="0.437551" y="0.437551" width="0.875101" height="115.125" rx="0.437551" fill="#2B2B2B" stroke="#2B2B2B" stroke-width="0.875101"/>
<rect x="180.708" y="0.437551" width="0.875101" height="115.125" rx="0.437551" fill="#2B2B2B" stroke="#2B2B2B" stroke-width="0.875101"/>
<rect x="361.042" y="0.5" width="2.5004" height="115" rx="1.2502" fill="#2B2B2B" stroke="#2B2B2B" stroke-dasharray="4 8"/>
<rect x="543" y="0.437551" width="0.875101" height="115.125" rx="0.437551" fill="#2B2B2B" stroke="#2B2B2B" stroke-width="0.875101"/>
<rect x="723.271" y="0.437551" width="0.875101" height="115.125" rx="0.437551" fill="#2B2B2B" stroke="#2B2B2B" stroke-width="0.875101"/>
<rect x="903.542" y="0.437551" width="0.875101" height="115.125" rx="0.437551" fill="#2B2B2B" stroke="#2B2B2B" stroke-width="0.875101"/>
<rect x="1083.81" y="0.437551" width="0.875101" height="115.125" rx="0.437551" fill="#2B2B2B" stroke="#2B2B2B" stroke-width="0.875101"/>
<rect y="116" width="1082.58" height="1" rx="0.5" fill="#2B2B2B"/>
<rect y="85" width="1082.58" height="1" rx="0.5" fill="#2B2B2B"/>
<rect y="54" width="1082.58" height="1" rx="0.5" fill="#2B2B2B"/>
<rect y="23" width="1082.58" height="1" rx="0.5" fill="#2B2B2B"/>
<path d="M1108 89.7712L1081.97 78.9515C1055.58 67.9839 1021.89 63.8854 989.613 67.717L941.15 73.4706C914.156 76.6754 886.139 71.5489 867.929 60.0725C848.737 47.9778 818.76 42.9882 790.686 47.2156L785.471 48.0009C752.927 52.9012 718.225 46.6707 697.093 32.133L673.462 15.8759C658.463 4.38979 628.456 3.03211 610.281 13.0173L525.724 59.472C490.207 78.9845 431.937 77.1591 400.633 55.5532C371.907 35.7274 319.752 32.2879 283.401 47.8221L253.371 60.6553C214.229 77.3824 157.567 71.9247 130.956 48.8642C112.373 32.7608 77.8843 24.5715 43.9732 28.2102L14.0015 31.4263" stroke="#09BD3C" stroke-width="3" stroke-linecap="round"/>
<path d="M1108 94.0459L1057.11 87.4108C1046.05 85.968 1034.66 85.4493 1023.31 85.8717L921.094 89.679C905.483 90.2605 889.822 89.0572 875.088 86.1441L859.911 83.1434C844.528 80.1019 828.141 78.9258 811.864 79.6947L758.303 82.2249C740.925 83.0459 723.438 81.6491 707.19 78.1424L673.462 70.8631C655.035 66.4358 634.343 65.8189 615.162 69.125L497.422 89.4184C472.704 93.6787 446.1 93.1557 421.991 87.9356L382.341 79.3503C360.566 74.6353 336.694 73.7406 313.967 76.7875L220.583 89.3073C194.683 92.7797 167.401 91.1205 143.484 84.6183L127.235 80.2008C109.493 75.3775 89.7872 73.1904 70.0542 73.8547L14.0015 75.7417" stroke="#FF0000" stroke-width="3" stroke-linecap="round"/>
<path d="M400.064 61C405.217 61 410.031 59.8513 413.663 57.8428C417.19 55.8921 420.242 52.7146 420.242 48.5C420.242 44.2854 417.19 41.1079 413.663 39.1572C410.031 37.1487 405.217 36 400.064 36C394.911 36 390.097 37.1487 386.465 39.1572C382.937 41.1079 379.885 44.2854 379.885 48.5C379.885 52.7146 382.937 55.8921 386.465 57.8428C390.097 59.8513 394.911 61 400.064 61Z" fill="#09BD3C" stroke="#202020" stroke-width="6"/>
</svg>
