<svg width="26" height="26" viewBox="0 0 26 26" fill="none" xmlns="http://www.w3.org/2000/svg">
<path d="M21.167 0.166016H4.83366C3.59598 0.166016 2.409 0.657681 1.53383 1.53285C0.658658 2.40802 0.166992 3.59501 0.166992 4.83268V12.9993C0.166992 13.3088 0.289908 13.6055 0.508701 13.8243C0.727493 14.0431 1.02424 14.166 1.33366 14.166H7.16699V24.666C7.16644 24.8892 7.22989 25.1078 7.34983 25.296C7.46976 25.4841 7.64115 25.634 7.84366 25.7277C8.04664 25.8211 8.2722 25.8543 8.49349 25.8233C8.71479 25.7923 8.92253 25.6983 9.09199 25.5527L12.417 22.706L15.742 25.5527C15.9533 25.7334 16.2222 25.8328 16.5003 25.8328C16.7784 25.8328 17.0473 25.7334 17.2587 25.5527L20.5837 22.706L23.9087 25.5527C24.12 25.7334 24.3889 25.8327 24.667 25.8327C24.8358 25.8315 25.0025 25.7958 25.157 25.7277C25.3595 25.634 25.5309 25.4841 25.6508 25.296C25.7708 25.1078 25.8342 24.8892 25.8337 24.666V4.83268C25.8337 3.59501 25.342 2.40802 24.4668 1.53285C23.5917 0.657681 22.4047 0.166016 21.167 0.166016ZM2.50033 11.8327V4.83268C2.50033 4.21384 2.74616 3.62035 3.18374 3.18277C3.62133 2.74518 4.21482 2.49935 4.83366 2.49935C5.4525 2.49935 6.04599 2.74518 6.48358 3.18277C6.92116 3.62035 7.16699 4.21384 7.16699 4.83268V11.8327H2.50033ZM23.5003 22.1343L21.342 20.2793C21.1307 20.0986 20.8617 19.9993 20.5837 19.9993C20.3056 19.9993 20.0366 20.0986 19.8253 20.2793L16.5003 23.126L13.1753 20.2793C12.964 20.0986 12.6951 19.9993 12.417 19.9993C12.1389 19.9993 11.87 20.0986 11.6587 20.2793L9.50033 22.1343V4.83268C9.49887 4.01308 9.28158 3.20831 8.87033 2.49935H21.167C21.7858 2.49935 22.3793 2.74518 22.8169 3.18277C23.2545 3.62035 23.5003 4.21384 23.5003 4.83268V22.1343ZM21.167 5.99935C21.167 6.30877 21.0441 6.60551 20.8253 6.82431C20.6065 7.0431 20.3097 7.16602 20.0003 7.16602H13.0003C12.6909 7.16602 12.3942 7.0431 12.1754 6.82431C11.9566 6.60551 11.8337 6.30877 11.8337 5.99935C11.8337 5.68993 11.9566 5.39318 12.1754 5.17439C12.3942 4.9556 12.6909 4.83268 13.0003 4.83268H20.0003C20.3097 4.83268 20.6065 4.9556 20.8253 5.17439C21.0441 5.39318 21.167 5.68993 21.167 5.99935ZM21.167 10.666C21.167 10.9754 21.0441 11.2722 20.8253 11.491C20.6065 11.7098 20.3097 11.8327 20.0003 11.8327H13.0003C12.6909 11.8327 12.3942 11.7098 12.1754 11.491C11.9566 11.2722 11.8337 10.9754 11.8337 10.666C11.8337 10.3566 11.9566 10.0598 12.1754 9.84106C12.3942 9.62226 12.6909 9.49935 13.0003 9.49935H20.0003C20.3097 9.49935 20.6065 9.62226 20.8253 9.84106C21.0441 10.0598 21.167 10.3566 21.167 10.666ZM21.167 15.3327C21.167 15.6421 21.0441 15.9388 20.8253 16.1576C20.6065 16.3764 20.3097 16.4993 20.0003 16.4993H13.0003C12.6909 16.4993 12.3942 16.3764 12.1754 16.1576C11.9566 15.9388 11.8337 15.6421 11.8337 15.3327C11.8337 15.0233 11.9566 14.7265 12.1754 14.5077C12.3942 14.2889 12.6909 14.166 13.0003 14.166H20.0003C20.3097 14.166 20.6065 14.2889 20.8253 14.5077C21.0441 14.7265 21.167 15.0233 21.167 15.3327Z" fill="white"/>
</svg>
