<svg width="40" height="40" viewBox="0 0 40 40" fill="none" xmlns="http://www.w3.org/2000/svg">
<path d="M35.5862 28.2018L34.9947 27.4063C34.7293 27.0494 34.6334 26.5931 34.738 26.1608C34.9791 25.1642 35.2769 23.2005 34.38 21.436C34.1834 21.0492 34.0384 20.6367 33.9667 20.2087C33.4673 17.2274 34.9715 13.21 35.0004 13.1188C35.5273 11.4531 35.7366 10.7884 34.4632 10.1759C33.0774 9.50926 31.8461 10.2793 31.1272 11.5859C31.0296 11.7632 29.5828 14.4474 29.2513 17.9353C27.1089 15.0537 22.0139 8.20112 20.3204 5.92351C19.6881 5.07306 18.5055 4.81108 17.6015 5.36433C16.5648 5.9989 16.3162 7.36818 17.0249 8.32143C17.0198 8.31453 15.9529 6.87964 15.9835 6.92072C15.3198 6.02814 14.0581 5.79252 13.1487 6.43289C12.2082 7.09526 12.0035 8.398 12.6857 9.31545C13.9015 10.9508 13.6221 10.5748 13.7545 10.753C13.0534 9.80998 11.6923 9.64696 10.7858 10.428C9.97179 11.1294 9.86801 12.356 10.5092 13.2183L12.4835 15.8738C11.7749 14.9206 10.392 14.7643 9.48572 15.5742C8.69555 16.2804 8.6059 17.4884 9.23819 18.3388C9.563 18.7756 18.4561 30.7366 18.9503 31.4014C19.9674 32.7693 21.3572 33.6967 22.8745 34.1475C24.3023 34.5716 24.8848 35.6985 25.0516 35.8749L25.1202 35.9673C25.6914 36.7355 26.7774 36.8953 27.5457 36.3241L35.2321 30.6092C35.9946 30.0422 36.1531 28.9644 35.5862 28.2018Z" fill="#FFCE49"/>
<path d="M28.6301 8.87464C27.7906 7.10615 26.6043 5.51045 25.1518 4.19638C24.9488 4.01279 24.9331 3.69937 25.1168 3.49644C25.3003 3.29345 25.6138 3.27776 25.8168 3.46142C27.3647 4.86162 28.6297 6.56273 29.5255 8.44958C29.6429 8.69684 29.5376 8.99242 29.2904 9.10987C29.0442 9.22666 28.748 9.12295 28.6301 8.87464Z" fill="#ABABAB"/>
<path d="M25.852 9.64951C25.2668 8.53629 24.5086 7.51617 23.6097 6.63381C23.4144 6.44201 23.4115 6.12834 23.6032 5.93296C23.795 5.73759 24.1087 5.73479 24.304 5.92645C25.2747 6.87938 26.0954 7.98238 26.7293 9.18837C26.8566 9.43056 26.7634 9.73024 26.5212 9.85758C26.2783 9.98519 25.9791 9.8913 25.852 9.64951Z" fill="#ABABAB"/>
<path d="M7.09021 25.1305C5.54209 23.73 4.27738 22.0295 3.38141 20.1424C3.26396 19.8951 3.3693 19.5995 3.6165 19.4821C3.8637 19.3647 4.15934 19.47 4.27673 19.7172C5.11644 21.4859 6.30231 23.0812 7.75505 24.3954C7.95805 24.579 7.97374 24.8924 7.79008 25.0954C7.60713 25.2978 7.29372 25.3147 7.09021 25.1305Z" fill="#ABABAB"/>
<path d="M8.60282 22.6654C7.63173 21.7122 6.81148 20.6093 6.17749 19.4035C6.05015 19.1612 6.14331 18.8616 6.38557 18.7342C6.62782 18.6069 6.92743 18.7 7.05484 18.9422C7.64026 20.0559 8.39826 21.0758 9.29709 21.958C9.49241 22.1497 9.49534 22.4635 9.3036 22.6588C9.1122 22.854 8.79826 22.8573 8.60282 22.6654Z" fill="#ABABAB"/>
<path d="M12.7737 9.43381C13.5241 10.443 19.4689 18.4386 19.2679 18.1681C19.5955 18.6088 20.2281 18.6791 20.6446 18.3213C21.0232 17.9958 21.0858 17.433 20.7878 17.0323L15.4919 9.9096C15.4897 9.9066 15.4876 9.90374 15.4857 9.90113L15.4785 9.89137C15.4756 9.88753 15.4731 9.88408 15.4708 9.88108L15.4654 9.87379C15.4654 9.87379 15.4653 9.87366 15.4653 9.87366L14.4401 8.49488C13.8934 7.75966 13.9167 6.77717 14.4315 6.07495C12.8067 5.96942 11.5666 7.80966 12.7737 9.43381Z" fill="#E8C842"/>
<path d="M16.3325 21.0501C16.684 21.5229 17.3698 21.5818 17.7969 21.1759C18.1292 20.8601 18.1734 20.3459 17.8999 19.9781C17.2068 19.0459 12.7919 13.1081 12.2636 12.3975C11.7132 11.6574 11.7123 10.649 12.2378 9.93451C10.5058 9.83269 9.4598 11.8067 10.5091 13.218C13.1422 16.7591 13.5926 17.3651 16.3325 21.0501Z" fill="#E8C842"/>
<path d="M26.8746 35.1467L26.8059 35.0544C26.6391 34.8779 26.0566 33.7511 24.6289 33.3269C23.1116 32.8761 21.7219 31.9488 20.7047 30.5808C20.2105 29.9161 11.3173 17.955 10.9925 17.5183C10.4431 16.7793 10.4392 15.7705 10.9659 15.0553C9.23902 14.9545 8.18362 16.9205 9.23805 18.3387C9.56285 18.7755 18.456 30.7365 18.9502 31.4012C19.9674 32.7692 21.357 33.6965 22.8744 34.1473C24.3021 34.5715 24.8846 35.6984 25.0514 35.8748L25.1201 35.9671C25.6913 36.7354 26.7773 36.8952 27.5456 36.324L28.191 35.8441C27.6879 35.8221 27.1985 35.5824 26.8746 35.1467Z" fill="#E8C842"/>
<path d="M18.7794 7.50091C18.7784 7.49954 18.7794 7.50091 18.7794 7.50091C18.2319 6.76458 18.2562 5.7802 18.7732 5.07779C18.4157 5.05416 18.0514 5.12473 17.7183 5.29902L17.7182 5.29876C17.5453 5.38919 17.3888 5.5026 17.2548 5.63007C17.2546 5.63027 17.2543 5.63046 17.2541 5.63072H17.2541C16.5449 6.30507 16.4128 7.40221 16.96 8.22884L17.0249 8.32142L22.8899 16.2096C23.2323 16.6702 23.9008 16.727 24.3161 16.3307C24.6993 15.9651 24.747 15.3701 24.4269 14.9482L18.7794 7.50091ZM18.2168 6.74427L18.1859 6.70273C18.1962 6.71647 18.2065 6.7304 18.2168 6.74427Z" fill="#E8C842"/>
<path d="M31.1273 11.5858C31.0663 11.6965 30.4803 12.7845 29.9674 14.4342L29.9669 14.4338C29.6581 15.4272 29.3759 16.6244 29.2513 17.9352C29.7949 18.6577 30.9443 18.3062 30.9909 17.4033L31.0058 17.1147C31.3373 13.6268 32.7841 10.9427 32.8817 10.7654C33.0538 10.4526 33.2556 10.1709 33.4816 9.93199C32.5072 9.9176 31.6707 10.5982 31.1273 11.5858Z" fill="#E8C842"/>
</svg>
