<svg width="1200" height="1200" viewBox="0 0 1200 1200" fill="none" xmlns="http://www.w3.org/2000/svg">
<g clip-path="url(#clip0_1_482)">
<mask id="mask0_1_482" style="mask-type:luminance" maskUnits="userSpaceOnUse" x="0" y="0" width="1200" height="1200">
<path d="M1200 0H0V1200H1200V0Z" fill="white"/>
</mask>
<g mask="url(#mask0_1_482)">
<path d="M383.7 903C357.8 862.1 332.8 822.9 306.6 781.6C252.6 815.1 200.9 847.2 172 865.2C199.5 835.3 245.1 787.3 288.8 737.6C298.5 726.6 306 710.2 306.8 695.8C309.2 655.4 308.3 614.8 307.3 574.3C306.9 557 313.3 551.5 329.9 552.3C351.6 553.4 373.4 552.6 398.6 552.6C398.6 572.5 398.6 590 398.6 607.5C398.6 668.3 398 729.1 399.2 789.8C399.4 799.7 407.4 809.4 411.8 819.1C421.2 808.4 437.4 798.5 438.7 786.8C442.5 754 440.2 720.5 440.2 687.3C440.2 622.6 440.2 558 440.2 491.5H533.5V720.2C564.7 713.3 575.7 700.4 575.8 672.9C575.9 600.8 575.9 528.6 575.9 456.5C575.9 447.7 575.9 438.9 575.9 428.4H665C665.6 437.3 666.7 446.6 666.7 455.9C666.9 519.1 666.8 582.3 666.8 645.5C666.8 685.8 672.3 698.3 707.1 731.1C708.3 719.5 709.9 710.7 709.9 701.9C710.1 599 710.8 496 709.7 393.1C709.4 369.3 717.2 362.7 740.3 363.2C801.5 364.5 801.5 363.5 801.5 424.4C801.5 493.3 801.4 562.2 801.5 631.1C801.5 639.7 802.2 648.3 803 664.5C840.7 632.6 873.4 604.9 909.9 574C882.5 558.7 858.4 545.2 829.2 529C917.2 504.2 1000.5 480.7 1088.2 455.9C1060 531.1 1033 603.1 1004.1 680.4C988.1 658.8 975 641.1 960.4 621.3C876 708 793.2 793 707.4 881.1C672.8 834.6 643.2 794.8 612.1 752.9C535.3 803.4 460.5 852.6 383.7 903Z" fill="#182946"/>
</g>
<mask id="mask1_1_482" style="mask-type:luminance" maskUnits="userSpaceOnUse" x="0" y="0" width="1200" height="1200">
<path d="M1200 0H0V1200H1200V0Z" fill="white"/>
</mask>
<g mask="url(#mask1_1_482)">
<path d="M595 139.4C605.5 149 616 158.5 629.8 171.1C474.4 362.6 305.8 530.9 39.4 546.3C124 527.1 203.4 495.1 276.2 446.3C349.3 397.4 398.9 327.4 450.1 258.4C485.8 210.3 523.3 163.5 560.1 116.2C565.1 109.8 570.8 104 575.8 97.6001C600.5 65.4001 628.8 57.7001 668.8 73.1001C732 97.4001 797.1 117.7 862.4 136C962.7 164.1 1061.2 148.3 1158.3 117.3C1165.1 115.1 1171.7 112.5 1183.3 108.2C1135.7 165.7 1082.3 204.1 1007.7 215.2C1014.8 221.9 1018 226.2 1022.3 228.7C1052.4 246.7 1069.5 269.8 1057.1 307C1055.4 312.2 1058.4 319.6 1060.8 325.3C1066.1 338 1072.4 350.2 1078.2 362.7C1100.2 410.4 1100.2 410.5 1049.2 427.7C1043.1 429.8 1036.7 431.1 1030.7 433.7C1011.7 441.8 998.5 440.4 984.5 420.6C965.8 394.1 935.1 386.3 902.9 385.1C856.6 383.4 827.5 357.2 819.1 306.5C846.6 342.9 882.7 348 920 353.3C943.5 356.6 966.8 365.8 988.4 376.1C1022.9 392.5 1022.3 393.8 1055 367.9C1050 361.2 1043.4 355.1 1040.2 347.6C1033.5 331.7 1028.8 314.9 1022.9 298.7C1018.5 286.5 1017 269.8 1008.2 263.3C986.6 247.2 962.9 231.8 937.7 223.4C850.4 194.2 762.3 167.3 674 141.4C649.8 134.3 623.7 134 598.5 130.6C597.2 133.5 596.1 136.5 595 139.4Z" fill="#182946"/>
</g>
<mask id="mask2_1_482" style="mask-type:luminance" maskUnits="userSpaceOnUse" x="0" y="0" width="1200" height="1200">
<path d="M1200 0H0V1200H1200V0Z" fill="white"/>
</mask>
<g mask="url(#mask2_1_482)">
<path d="M538.8 985.3L531.2 1004.8C529.7 1008.5 527.1 1011.2 523.3 1012.9C520.6 1014.1 516.4 1014.9 510.8 1015.5C518.8 1017.2 522.6 1021.3 522.2 1027.7L514.5 1047C512.8 1051.2 510.2 1054.9 506.7 1057.9C502.7 1061.4 498.6 1063.1 494.3 1063.1H417L436.2 1044L459.5 985.2L447 971H526L538.8 985.3ZM492.6 1025.3H474.6L466.9 1044.7H484.8L492.6 1025.3ZM506.3 990.3H488.6L481.7 1007.7H499.3L506.3 990.3Z" fill="#F7B31B"/>
</g>
<mask id="mask3_1_482" style="mask-type:luminance" maskUnits="userSpaceOnUse" x="0" y="0" width="1200" height="1200">
<path d="M1200 0H0V1200H1200V0Z" fill="white"/>
</mask>
<g mask="url(#mask3_1_482)">
<path d="M639.8 971L632 989.9H625.3L602.9 1046.3C600.8 1050.7 597.8 1054.5 593.8 1057.7C589.3 1061.3 584.7 1063.1 580 1063.1H535.7L524.1 1049.1L549.3 985.5L539 971H585.8L556.4 1044.2H573.2L599.9 979.8L592.2 970.9H639.8V971Z" fill="#F7B31B"/>
</g>
<mask id="mask4_1_482" style="mask-type:luminance" maskUnits="userSpaceOnUse" x="0" y="0" width="1200" height="1200">
<path d="M1200 0H0V1200H1200V0Z" fill="white"/>
</mask>
<g mask="url(#mask4_1_482)">
<path d="M720.3 1031.8C718.6 1036.2 716.7 1041.3 714.4 1047C712.8 1051.1 710.2 1054.8 706.6 1057.9C702.6 1061.3 698.5 1063.1 694.2 1063.1H620.4L639.6 1044L662.9 985.2L650.4 971H706L698.5 989.3H692.2L670 1043.3H687.6L693 1031.8H720.3Z" fill="#F7B31B"/>
</g>
<mask id="mask5_1_482" style="mask-type:luminance" maskUnits="userSpaceOnUse" x="0" y="0" width="1200" height="1200">
<path d="M1200 0H0V1200H1200V0Z" fill="white"/>
</mask>
<g mask="url(#mask5_1_482)">
<path d="M816.5 1031.8C814.8 1036.2 812.9 1041.3 810.6 1047C809 1051.1 806.4 1054.8 802.8 1057.9C798.8 1061.3 794.7 1063.1 790.4 1063.1H716.6L735.8 1044L759.1 985.2L746.6 971H802.2L794.7 989.3H788.4L766.2 1043.3H783.8L789.2 1031.8H816.5Z" fill="#F7B31B"/>
</g>
<mask id="mask6_1_482" style="mask-type:luminance" maskUnits="userSpaceOnUse" x="0" y="0" width="1200" height="1200">
<path d="M1200 0H0V1200H1200V0Z" fill="white"/>
</mask>
<g mask="url(#mask6_1_482)">
<path d="M1019.3 971L1008.5 998H981.6L984.7 990.2H967L959.8 1007.7H993.3C1000.3 1007.7 1003.8 1010.5 1003.8 1016C1003.8 1018.1 1003.3 1020.2 1002.4 1022.5L992.4 1047C990.6 1051.4 988 1055.1 984.5 1058.1C980.6 1061.5 976.5 1063.2 972.2 1063.2H909.2L920.5 1034.9H950L946.6 1043.8H963.3L970.9 1024.8H941L928 1010.2L938.1 984.6C939.7 980.6 943.2 977.3 948.7 974.7C953.6 972.3 958.4 971.1 963.2 971.1H1019.3V971Z" fill="#F7B31B"/>
</g>
<mask id="mask7_1_482" style="mask-type:luminance" maskUnits="userSpaceOnUse" x="0" y="0" width="1200" height="1200">
<path d="M1200 0H0V1200H1200V0Z" fill="white"/>
</mask>
<g mask="url(#mask7_1_482)">
<path d="M886.7 1063.1H812.9L832.1 1044L855.4 985.2L842.9 971H898.5L891 989.3H884.7L862.5 1043.3C862.5 1043.3 891 1063.1 886.7 1063.1Z" fill="#F7B31B"/>
</g>
<mask id="mask8_1_482" style="mask-type:luminance" maskUnits="userSpaceOnUse" x="0" y="0" width="1200" height="1200">
<path d="M1200 0H0V1200H1200V0Z" fill="white"/>
</mask>
<g mask="url(#mask8_1_482)">
<path d="M1060.3 1032.9V1035.3L1061.4 1032.6L1060.3 1032.9Z" fill="#F7B31B"/>
</g>
<mask id="mask9_1_482" style="mask-type:luminance" maskUnits="userSpaceOnUse" x="0" y="0" width="1200" height="1200">
<path d="M1200 0H0V1200H1200V0Z" fill="white"/>
</mask>
<g mask="url(#mask9_1_482)">
<path d="M1180.8 1068.5L1107.7 1058.4C1103.4 1057.8 1134.3 1042.1 1134.3 1042.1L1132.1 1033.5C1127 1030.5 1114.4 1019.6 1114.4 1019.6L1061.5 1032.6L1060.4 1032.9V1035.3L1059.8 1036.8L1057.1 1043.3C1057.1 1043.3 1085.5 1063.1 1081.2 1063.1H1007.4L1026.6 1044L1049.9 985.2L1037.4 971H1093L1085.5 989.3H1079.2L1069.8 1012.2L1115 1001.5L1122.6 996.9L1119.7 985.6L1113.4 984.7L1108.5 965.6L1163.6 973.2L1149.2 985.5L1164.3 1047L1180.8 1068.5Z" fill="#F7B31B"/>
</g>
<mask id="mask10_1_482" style="mask-type:luminance" maskUnits="userSpaceOnUse" x="0" y="0" width="1200" height="1200">
<path d="M1200 0H0V1200H1200V0Z" fill="white"/>
</mask>
<g mask="url(#mask10_1_482)">
<path d="M1059.7 1036.8L1060.3 1036.6V1035.3L1059.7 1036.8Z" fill="#F7B31B"/>
</g>
<mask id="mask11_1_482" style="mask-type:luminance" maskUnits="userSpaceOnUse" x="0" y="0" width="1200" height="1200">
<path d="M1200 0H0V1200H1200V0Z" fill="white"/>
</mask>
<g mask="url(#mask11_1_482)">
<path d="M349.2 1028.2H386.4C384.4 1033.5 382.1 1039.4 379.6 1045.9C379.2 1046.9 378.8 1047.9 378.4 1048.9C376.2 1054.6 372.6 1059.5 367.7 1063.8C362.3 1068.5 356.6 1070.9 350.8 1070.9H250L276.2 1044.8L305.2 971.8L305 971.3L278.8 945.2H379.5C385.4 945.2 391 947.5 396.4 952.3C401.3 956.6 404.9 961.6 407.1 967.2C410.1 974.9 412.8 981.8 415.1 987.9H378L370.6 972.2H346.6L346.9 973L335.3 1001.2L362.1 997.4H368L374.9 1014.3H329.9L325.9 1024L317.8 1043.8H341.8L349.2 1028.2Z" fill="#F7B31B"/>
</g>
<mask id="mask12_1_482" style="mask-type:luminance" maskUnits="userSpaceOnUse" x="0" y="0" width="1200" height="1200">
<path d="M1200 0H0V1200H1200V0Z" fill="white"/>
</mask>
<g mask="url(#mask12_1_482)">
<path d="M269 945.2L258.3 970.9H249.2L218.6 1047.9C215.8 1053.9 211.6 1059.1 206.2 1063.5C200 1068.4 193.8 1070.9 187.4 1070.9H127L126.7 1070.5C125.3 1070.8 123.8 1070.9 122.4 1070.9H61.9L46 1051.7L80.4 964.8L66.3 945.2H130.2L90 1045.2H112.9L130.4 1003L145.5 964.9L131.4 945.3H195.3L185 971L155.2 1045.2H178L214.4 957.3L203.9 945.3V945.2H269Z" fill="#F7B31B"/>
</g>
</g>
<defs>
<clipPath id="clip0_1_482">
<rect width="1200" height="1200" fill="white"/>
</clipPath>
</defs>
</svg>
