<svg width="22" height="22" viewBox="0 0 22 22" fill="none" xmlns="http://www.w3.org/2000/svg">
<path d="M15.9699 13.44C17.3399 13.67 18.8499 13.43 19.9099 12.72C21.3199 11.78 21.3199 10.24 19.9099 9.3C18.8399 8.59 17.3099 8.35 15.9399 8.59M5.99994 13.44C4.62994 13.67 3.11994 13.43 2.05994 12.72C0.649941 11.78 0.649941 10.24 2.05994 9.3C3.12994 8.59 4.65994 8.35 6.02994 8.59M16.9999 6.16C16.937 6.14999 16.8729 6.14999 16.8099 6.16C16.1426 6.13587 15.5107 5.85321 15.0479 5.37176C14.5852 4.89032 14.3277 4.2478 14.3299 3.58C14.3299 2.15 15.4799 1 16.9099 1C17.5942 1 18.2504 1.27182 18.7343 1.75566C19.2181 2.23951 19.4899 2.89574 19.4899 3.58C19.4881 4.24827 19.2279 4.88996 18.7639 5.37081C18.2998 5.85167 17.6677 6.13445 16.9999 6.16ZM4.96994 6.16C5.02994 6.15 5.09994 6.15 5.15994 6.16C5.82731 6.13587 6.45915 5.85321 6.92194 5.37176C7.38472 4.89032 7.64219 4.2478 7.63994 3.58C7.63994 2.15 6.48994 1 5.05994 1C4.37568 1 3.71945 1.27182 3.23561 1.75566C2.75176 2.23951 2.47994 2.89574 2.47994 3.58C2.48994 4.98 3.58994 6.11 4.96994 6.16ZM10.9999 13.63C10.937 13.62 10.8729 13.62 10.8099 13.63C10.1426 13.6059 9.51073 13.3232 9.04795 12.8418C8.58516 12.3603 8.32769 11.7178 8.32994 11.05C8.32994 9.62 9.47994 8.47 10.9099 8.47C11.5942 8.47 12.2504 8.74182 12.7343 9.22566C13.2181 9.70951 13.4899 10.3657 13.4899 11.05C13.4799 12.45 12.3799 13.59 10.9999 13.63ZM8.08994 16.78C6.67994 17.72 6.67994 19.26 8.08994 20.2C9.68994 21.27 12.3099 21.27 13.9099 20.2C15.3199 19.26 15.3199 17.72 13.9099 16.78C12.3199 15.72 9.68994 15.72 8.08994 16.78Z" stroke="#949494" stroke-width="1.5" stroke-linecap="round" stroke-linejoin="round"/>
</svg>
