<svg width="24" height="23" viewBox="0 0 24 23" fill="none" xmlns="http://www.w3.org/2000/svg">
<path d="M5.00247 19.5453C5.06997 19.5453 11.58 19.4403 11.58 10.6278C11.5834 9.63918 11.316 8.66846 10.8069 7.82095C10.2978 6.97343 9.56637 6.28147 8.69195 5.8201C7.81754 5.35874 6.83349 5.14557 5.84654 5.20371C4.85958 5.26186 3.90738 5.5891 3.09318 6.14995C2.27899 6.7108 1.63388 7.48386 1.22781 8.38529C0.821748 9.28672 0.670222 10.2821 0.789666 11.2635C0.909111 12.245 1.29497 13.175 1.90539 13.9527C2.51582 14.7304 3.32752 15.3262 4.25247 15.6753V18.7953C4.25247 18.9943 4.33149 19.185 4.47214 19.3257C4.61279 19.4663 4.80356 19.5453 5.00247 19.5453ZM2.24997 10.6278C2.24997 9.58952 2.66244 8.59373 3.39665 7.85952C4.13085 7.12532 5.12665 6.71285 6.16497 6.71285C7.20329 6.71285 8.19909 7.12532 8.93329 7.85952C9.6675 8.59373 10.08 9.58952 10.08 10.6278C10.08 16.2528 7.16997 17.6103 5.75247 17.9403V15.1278C5.75786 14.9575 5.70509 14.7905 5.60285 14.6541C5.5006 14.5178 5.35499 14.4204 5.18997 14.3778C4.35498 14.1645 3.61394 13.6811 3.08221 13.0029C2.55048 12.3246 2.25788 11.4896 2.24997 10.6278Z" fill="#949494"/>
<path d="M16.665 19.5454C16.7325 19.5454 23.25 19.4404 23.25 10.6279C23.2529 9.63974 22.9853 8.66959 22.4762 7.82261C21.9671 6.97563 21.2359 6.28411 20.3619 5.82298C19.4879 5.36184 18.5043 5.14867 17.5178 5.20657C16.5313 5.26446 15.5794 5.59121 14.7654 6.15141C13.9513 6.71161 13.306 7.48391 12.8995 8.38462C12.4929 9.28534 12.3406 10.2801 12.4591 11.2612C12.5775 12.2423 12.9621 13.1723 13.5713 13.9504C14.1805 14.7285 14.991 15.325 15.915 15.6754V18.7954C15.915 18.9944 15.994 19.1851 16.1347 19.3258C16.2753 19.4664 16.4661 19.5454 16.665 19.5454ZM13.92 10.6279C13.92 9.58962 14.3325 8.59382 15.0667 7.85962C15.8009 7.12541 16.7967 6.71294 17.835 6.71294C18.8733 6.71294 19.8691 7.12541 20.6033 7.85962C21.3376 8.59382 21.75 9.58962 21.75 10.6279C21.75 16.2529 18.8325 17.6104 17.415 17.9404V15.1279C17.4204 14.9576 17.3676 14.7905 17.2654 14.6542C17.1632 14.5179 17.0175 14.4205 16.8525 14.3779C16.0189 14.1632 15.2796 13.6792 14.7493 13.0011C14.219 12.323 13.9275 11.4887 13.92 10.6279Z" fill="#949494"/>
</svg>
