<svg width="18" height="24" viewBox="0 0 18 24" fill="none" xmlns="http://www.w3.org/2000/svg">
<path d="M15.75 3H15C15 2.40326 14.7629 1.83097 14.341 1.40901C13.919 0.987053 13.3467 0.75 12.75 0.75H5.25C4.65326 0.75 4.08097 0.987053 3.65901 1.40901C3.23705 1.83097 3 2.40326 3 3H2.25C1.66351 2.99979 1.10013 3.22859 0.679853 3.63766C0.259579 4.04672 0.0156396 4.60372 0 5.19V21.06C0.0156396 21.6463 0.259579 22.2033 0.679853 22.6123C1.10013 23.0214 1.66351 23.2502 2.25 23.25H15.75C16.3365 23.2502 16.8999 23.0214 17.3201 22.6123C17.7404 22.2033 17.9844 21.6463 18 21.06V17.25C18 17.0511 17.921 16.8603 17.7803 16.7197C17.6397 16.579 17.4489 16.5 17.25 16.5C17.0511 16.5 16.8603 16.579 16.7197 16.7197C16.579 16.8603 16.5 17.0511 16.5 17.25V21.06C16.4849 21.2483 16.3992 21.424 16.2602 21.552C16.1211 21.6799 15.9389 21.7506 15.75 21.75H2.25C2.06106 21.7506 1.87885 21.6799 1.7398 21.552C1.60076 21.424 1.51511 21.2483 1.5 21.06V5.19C1.51511 5.00166 1.60076 4.82597 1.7398 4.69805C1.87885 4.57012 2.06106 4.49939 2.25 4.5H3C3 5.09674 3.23705 5.66903 3.65901 6.09099C4.08097 6.51295 4.65326 6.75 5.25 6.75H12.75C13.3467 6.75 13.919 6.51295 14.341 6.09099C14.7629 5.66903 15 5.09674 15 4.5H15.75C15.9389 4.49939 16.1211 4.57012 16.2602 4.69805C16.3992 4.82597 16.4849 5.00166 16.5 5.19V6.75C16.5 6.94891 16.579 7.13968 16.7197 7.28033C16.8603 7.42098 17.0511 7.5 17.25 7.5C17.4489 7.5 17.6397 7.42098 17.7803 7.28033C17.921 7.13968 18 6.94891 18 6.75V5.19C17.9844 4.60372 17.7404 4.04672 17.3201 3.63766C16.8999 3.22859 16.3365 2.99979 15.75 3ZM13.5 4.5C13.5 4.69891 13.421 4.88968 13.2803 5.03033C13.1397 5.17098 12.9489 5.25 12.75 5.25H5.25C5.05109 5.25 4.86032 5.17098 4.71967 5.03033C4.57902 4.88968 4.5 4.69891 4.5 4.5V3C4.5 2.80109 4.57902 2.61032 4.71967 2.46967C4.86032 2.32902 5.05109 2.25 5.25 2.25H12.75C12.9489 2.25 13.1397 2.32902 13.2803 2.46967C13.421 2.61032 13.5 2.80109 13.5 3V4.5Z" fill="#949494"/>
</svg>
