<svg width="24" height="24" viewBox="0 0 24 24" fill="none" xmlns="http://www.w3.org/2000/svg">
<path d="M15.6257 15.9997V13.9996C16.0944 13.7766 17.4351 12.2445 17.5757 11.0475C17.9445 11.0205 18.5237 10.6954 18.6945 9.41239C18.7862 8.72336 18.4216 8.33635 18.2008 8.21434C18.2008 8.21434 18.7508 7.2113 18.7508 6.00025C18.7508 3.57215 17.758 1.50006 15.6257 1.50006C15.6257 1.50006 14.885 0 12.5005 0C8.08159 0 6.25026 2.72111 6.25026 6.00025C6.25026 7.1043 6.80028 8.21434 6.80028 8.21434C6.57944 8.33635 6.21484 8.72436 6.30651 9.41239C6.47735 10.6954 7.05654 11.0205 7.42531 11.0475C7.56594 12.2445 8.90662 13.7766 9.37539 13.9996V15.9997C8.33368 18.9998 0 16.9997 0 24H25.001C25.001 16.9997 16.6674 18.9998 15.6257 15.9997Z" fill="#949494"/>
</svg>
