<svg width="22" height="22" viewBox="0 0 22 22" fill="none" xmlns="http://www.w3.org/2000/svg">
<path d="M1 11.8801V10.1201C1 9.08006 1.85 8.22006 2.9 8.22006C4.71 8.22006 5.45 6.94006 4.54 5.37006C4.02 4.47006 4.33 3.30006 5.24 2.78006L6.97 1.79006C7.76 1.32006 8.78 1.60006 9.25 2.39006L9.36 2.58006C10.26 4.15006 11.74 4.15006 12.65 2.58006L12.76 2.39006C13.23 1.60006 14.25 1.32006 15.04 1.79006L16.77 2.78006C17.68 3.30006 17.99 4.47006 17.47 5.37006C16.56 6.94006 17.3 8.22006 19.11 8.22006C20.15 8.22006 21.01 9.07006 21.01 10.1201V11.8801C21.01 12.9201 20.16 13.7801 19.11 13.7801C17.3 13.7801 16.56 15.0601 17.47 16.6301C17.99 17.5401 17.68 18.7001 16.77 19.2201L15.04 20.2101C14.25 20.6801 13.23 20.4001 12.76 19.6101L12.65 19.4201C11.75 17.8501 10.27 17.8501 9.36 19.4201L9.25 19.6101C8.78 20.4001 7.76 20.6801 6.97 20.2101L5.24 19.2201C4.8041 18.9691 4.48558 18.5554 4.35435 18.0698C4.22311 17.5843 4.28988 17.0665 4.54 16.6301C5.45 15.0601 4.71 13.7801 2.9 13.7801C1.85 13.7801 1 12.9201 1 11.8801Z" stroke="#949494" stroke-width="1.5" stroke-miterlimit="10" stroke-linecap="round" stroke-linejoin="round"/>
</svg>
